<?xml version="1.0" encoding="utf-8"?>
<!-- Generator: Adobe Illustrator 23.0.6, SVG Export Plug-In . SVG Version: 6.00 Build 0)  -->
<svg version="1.1" id="Layer_1" xmlns="http://www.w3.org/2000/svg" xmlns:xlink="http://www.w3.org/1999/xlink" x="0px" y="0px"
	 viewBox="0 0 19 19" style="enable-background:new 0 0 19 19;" xml:space="preserve">
<style type="text/css">
	.st0{fill:#008EE8;}
</style>
<path class="st0" d="M13.5,12.1l5.3,5.2c0.4,0.4,0.4,1,0,1.4c-0.4,0.4-1,0.4-1.4,0c0,0,0,0,0,0L12,13.5C8.7,16,4,15.3,1.5,12
	S-0.3,4,3,1.5S11-0.3,13.5,3C15.5,5.6,15.5,9.4,13.5,12.1C13.5,12.1,13.5,12.1,13.5,12.1z M7.5,13c3,0,5.5-2.5,5.5-5.5S10.5,2,7.5,2
	S2,4.5,2,7.5S4.5,13,7.5,13z"/>
</svg>
