<?xml version="1.0" encoding="utf-8"?>
<!-- Generator: Adobe Illustrator 23.0.6, SVG Export Plug-In . SVG Version: 6.00 Build 0)  -->
<svg version="1.1" id="Layer_1" xmlns="http://www.w3.org/2000/svg" xmlns:xlink="http://www.w3.org/1999/xlink" x="0px" y="0px"
	 viewBox="0 0 19 19" style="enable-background:new 0 0 19 19;" xml:space="preserve">
<style type="text/css">
	.st0{fill:#008EE8;}
</style>
<path class="st0" d="M11.5,9.1l7.2,7.2c0.4,0.4,0.4,1.1,0,1.6s-1.1,0.4-1.6,0l-7.2-7.2l-7.2,7.2c-0.4,0.4-1.1,0.4-1.6,0
	s-0.4-1.1,0-1.6l7.2-7.2L1.1,1.9c-0.4-0.4-0.4-1.1,0-1.6s1.1-0.4,1.6,0l7.2,7.2l7.2-7.2c0.4-0.4,1.1-0.4,1.6,0s0.4,1.1,0,1.6l0,0
	L11.5,9.1z"/>
</svg>
